<svg xmlns="http://www.w3.org/2000/svg" viewBox="0 0 30 38">
    <defs>
        <style>
            .cls-1{fill:#000000;} /* Outer marker color changed to black */
            .cls-2{fill:#c2c2c2;} /* Main circle color changed to red */
            .cls-3{fill:#c2c2c2;} /* Inner circle color, adjust if needed */
        </style>
    </defs>
    <g id="offre-abo-on">
        <path class="cls-1" d="M29.93,14.93C29.93,27.14,15,38,15,38S.07,27.14.07,14.93a14.93,14.93,0,0,1,29.86,0Z"/>
        <path d="M15,2A12.94,12.94,0,0,1,27.93,14.93c0,9.12-9.54,17.75-12.93,20.53C11.61,32.69,2.07,24.08,2.07,14.93A12.94,12.94,0,0,1,15,2m0-2A14.93,14.93,0,0,0,.07,14.93C.07,27.14,15,38,15,38S29.93,27.14,29.93,14.93A14.93,14.93,0,0,0,15,0Z"/>
        <path class="cls-2" d="M15,24.61a10,10,0,1,1,10-10A10,10,0,0,1,15,24.61Z"/>
        <path class="cls-3" d="M15,5.07a9.52,9.52,0,1,1-9.52,9.52A9.53,9.53,0,0,1,15,5.07m0-1A10.52,10.52,0,1,0,25.52,14.59,10.52,10.52,0,0,0,15,4.07Z"/>
    </g>
</svg>
