<svg xmlns="http://www.w3.org/2000/svg" viewBox="0 0 160 160"><defs><style>.cls-1{fill:#f4f4f4;}.cls-2{fill:#114b56;}.cls-3{fill:none;}.cls-4{fill:#0097d1;}</style></defs><g id="separateur-titre"><path class="cls-1" d="M80,3A77,77,0,1,1,3,80,77.08,77.08,0,0,1,80,3m0-3a80,80,0,1,0,80,80A80,80,0,0,0,80,0Z"/></g><g id="offre-abo-on"><path class="cls-2" d="M44.86,56.49v0l3.44,12.51v0a2,2,0,0,0,2,1.56H68.14A1.75,1.75,0,0,0,70,69.2v-.08l0-.07,3.43-12.51v0a1.73,1.73,0,0,0-.3-1.72,2.29,2.29,0,0,0-1.73-.87H46.88a2.08,2.08,0,0,0-1.64.76A2.23,2.23,0,0,0,44.86,56.49Z"/><path class="cls-3" d="M18.65,87.8V86.25L18.16,86,6.6,79.22c0,.26,0,.52,0,.78A74,74,0,0,0,7.94,94.06a66.68,66.68,0,0,0,10.29-6Z"/><path class="cls-3" d="M29.36,77l.55-.89a31.43,31.43,0,0,0,4.84-14.86V58.14l-1,0-16.41.31a2.72,2.72,0,0,1-1.54-.56l-4.41-4A73,73,0,0,0,8.7,62.48l19.79,13.9Z"/><path class="cls-3" d="M63,128.92a24.13,24.13,0,1,0,0-48.26,23,23,0,0,0-15,5.4l-.68.57.5.74A49.57,49.57,0,0,0,64.1,103a1.84,1.84,0,0,1,1,1.19,2.38,2.38,0,0,1-.17,1.67A2.31,2.31,0,0,1,63,107.08a3.4,3.4,0,0,1-1-.24A55.31,55.31,0,0,1,45,91.09L44.28,90l-.82,1a21.7,21.7,0,0,0-4.61,13.76A24.16,24.16,0,0,0,63,128.92Z"/><path class="cls-3" d="M80,6.58A73.4,73.4,0,0,0,15.58,44.76l4.1,5.31.23.29.36.08L37,53.88a2.07,2.07,0,0,1,1.7,2.2l-.16.16V57a1.61,1.61,0,0,0,0,.34,16.58,16.58,0,0,1,.12,3.5v.13a51.52,51.52,0,0,0,5.58,20.72l.55,1.06.94-.73a27.58,27.58,0,0,1,17-5.73A28.79,28.79,0,0,1,83,84.69a28.38,28.38,0,1,1-41.6,1.68l.45-.53-.34-.6a61,61,0,0,1-4.3-10.15l-.79-2.38L35.35,75a36.65,36.65,0,0,1-3.66,6.09c-.75,1.06-1.69,2.15-2.6,3.21l-.17.2-.05.25-6.72,32.5A2.19,2.19,0,0,1,20,119h-.26a2.23,2.23,0,0,1-1.87-2.12L18.49,95l.06-1.8L17,94.09a83.71,83.71,0,0,1-8.11,4.2A73.43,73.43,0,1,0,80,6.58Z"/><path class="cls-2" d="M18.55,93.17,18.49,95l-.62,21.87A2.23,2.23,0,0,0,19.74,119H20a2.19,2.19,0,0,0,2.15-1.72l6.72-32.5.05-.25.17-.2c.91-1.06,1.85-2.15,2.6-3.21A36.65,36.65,0,0,0,35.35,75l1.06-2.28.79,2.38a61,61,0,0,0,4.3,10.15l.34.6-.45.53A28.4,28.4,0,1,0,83,84.69a28.79,28.79,0,0,0-20.17-8.44,27.58,27.58,0,0,0-17,5.73l-.94.73-.55-1.06A51.52,51.52,0,0,1,38.7,60.93V60.8a16.58,16.58,0,0,0-.12-3.5,1.61,1.61,0,0,1,0-.34v-.72l.16-.16a2.07,2.07,0,0,0-1.7-2.2L20.27,50.44l-.36-.08-.23-.29-4.1-5.31a74.16,74.16,0,0,0-4.2,9.14l4.41,4a2.72,2.72,0,0,0,1.54.56l16.41-.31,1,0v3.09a31.43,31.43,0,0,1-4.84,14.86l-.55.89-.87-.6L8.7,62.48A73.78,73.78,0,0,0,6.6,79.22L18.16,86l.49.29V87.8l-.42.3a66.68,66.68,0,0,1-10.29,6c.28,1.42.58,2.84.94,4.23A83.71,83.71,0,0,0,17,94.09ZM44.28,90,45,91.09A55.31,55.31,0,0,0,62,106.84a3.4,3.4,0,0,0,1,.24,2.31,2.31,0,0,0,1.94-1.19,2.38,2.38,0,0,0,.17-1.67,1.84,1.84,0,0,0-1-1.19A49.57,49.57,0,0,1,47.78,87.37l-.5-.74.68-.57a23,23,0,0,1,15-5.4,24.13,24.13,0,1,1-24.13,24.13A21.7,21.7,0,0,1,43.46,91Z"/><path class="cls-4" d="M125.42,79.75h-11.5a3,3,0,0,0-3,3V87l-11,4.92,11,16.7v21.87a3,3,0,0,0,3,3h11.5a3,3,0,0,0,3-3V82.75A3,3,0,0,0,125.42,79.75Zm-5.75,13.58a4.17,4.17,0,1,1,4.16-4.16A4.16,4.16,0,0,1,119.67,93.33Z"/><path class="cls-2" d="M104.24,70a1.62,1.62,0,0,0,0-2.3l-5.48-5.48,5.48-5.48a1.62,1.62,0,0,0,0-2.3,1.64,1.64,0,0,0-2.3,0L95.31,61.1a1.64,1.64,0,0,0,0,2.3L101.94,70A1.64,1.64,0,0,0,104.24,70Z"/><path class="cls-2" d="M115.12,70a1.64,1.64,0,0,0,0-2.3l-5.48-5.48,5.48-5.48a1.63,1.63,0,0,0-2.3-2.3l-6.63,6.63a1.64,1.64,0,0,0,0,2.3L112.82,70A1.64,1.64,0,0,0,115.12,70Z"/><path class="cls-2" d="M125.8,70a1.64,1.64,0,0,0,0-2.3l-5.48-5.48,5.48-5.48a1.63,1.63,0,1,0-2.3-2.3l-6.63,6.63a1.62,1.62,0,0,0,0,2.3L123.5,70A1.64,1.64,0,0,0,125.8,70Z"/></g></svg>