<svg xmlns="http://www.w3.org/2000/svg" viewBox="0 0 160 160"><defs><style>.cls-1{fill:#f4f4f4;}.cls-2{fill:#0097d1;}.cls-3{fill:#114b56;}</style></defs><g id="separateur-titre"><path class="cls-1" d="M80,3A77,77,0,1,1,3,80,77.08,77.08,0,0,1,80,3m0-3a80,80,0,1,0,80,80A80,80,0,0,0,80,0Z"/></g><g id="offre-abo-on"><rect class="cls-2" x="21" y="51.72" width="45.18" height="50.6"/><path class="cls-3" d="M66.18,45a4.06,4.06,0,0,0-4.06-4.06h-37A4.07,4.07,0,0,0,21,45v3.17H66.18Z"/><path class="cls-3" d="M114.15,97.72A2.13,2.13,0,0,1,112.32,99h-9.95c0-.41.06-.82.06-1.24a14.16,14.16,0,0,0-.19-2.26h32.22a1.19,1.19,0,0,0,1.2-1.18V56.77a4.75,4.75,0,0,0-4.82-4.68H77.93a4.74,4.74,0,0,0-4.81,4.68V79.13a4.45,4.45,0,0,0-1.23,3,4.52,4.52,0,0,0,.06.74l-1-1a4.43,4.43,0,0,0-6.25,0,4.44,4.44,0,0,0-1.24,3.88l-6.61-6.6a4.43,4.43,0,1,0-6.29,6.24l20.76,20.77-5.11.8v-1H21v6.78a4.07,4.07,0,0,0,4.07,4.06H83.33a14.56,14.56,0,0,0,10.35-4.28L98.15,108a14.43,14.43,0,0,0,3.64-6H137c1.53,0,2.76-1.54,2.76-3.43v-.85ZM43.59,114.09a2.71,2.71,0,1,1,2.71-2.71A2.71,2.71,0,0,1,43.59,114.09Zm57.93-21.42a14.55,14.55,0,0,0-2.89-4.79L88,76.18l0,0,0,0a4.33,4.33,0,0,0-3.06-1.24,4.46,4.46,0,0,0-4.46,4.44,4.49,4.49,0,0,0,.06.73l-1-1a4.36,4.36,0,0,0-3.12-1.3,4.23,4.23,0,0,0-.5,0V56.48a1.27,1.27,0,0,1,1.3-1.25h54.42a1.27,1.27,0,0,1,1.29,1.25V91.42a1.27,1.27,0,0,1-1.29,1.25Z"/></g></svg>