<svg xmlns="http://www.w3.org/2000/svg" viewBox="0 0 160 160"><defs><style>.cls-1{fill:#f4f4f4;}.cls-2{fill:#114b56;}.cls-3{fill:#fff;}.cls-4{fill:none;}.cls-5{fill:#0097d1;}</style></defs><g id="separateur-titre"><path class="cls-1" d="M80,3A77,77,0,1,1,3,80,77.08,77.08,0,0,1,80,3m0-3a80,80,0,1,0,80,80A80,80,0,0,0,80,0Z"/></g><g id="offre-abo-on"><path class="cls-2" d="M85.79,43.85v.06l4,14.75v.06a2.37,2.37,0,0,0,2.35,1.84h21a2.06,2.06,0,0,0,2.15-1.72v-.09l0-.09,4.06-14.75v-.06a2,2,0,0,0-.36-2,2.68,2.68,0,0,0-2-1H88.18a2.47,2.47,0,0,0-2,.9A2.65,2.65,0,0,0,85.79,43.85Z"/><path class="cls-3" d="M103.93,62.33H89.35a7.82,7.82,0,0,0-7.81,7.81v2.78L70,78.11,65.66,80,68.25,84l13.29,20.19v26.54a7.82,7.82,0,0,0,7.81,7.8h14.58a7.81,7.81,0,0,0,7.81-7.8V70.14A7.81,7.81,0,0,0,103.93,62.33ZM91.35,78.27a5.27,5.27,0,0,1,1.55-3.74,5.18,5.18,0,0,1,1.68-1.13,5.18,5.18,0,0,0-1.68,1.13,5.27,5.27,0,0,0-1.55,3.74Zm10.58,0a5.27,5.27,0,0,0-1.55-3.74A5.18,5.18,0,0,0,98.7,73.4a5.18,5.18,0,0,1,1.68,1.13,5.27,5.27,0,0,1,1.55,3.74ZM86.66,67.45a3.78,3.78,0,0,1,1.92-1,3.78,3.78,0,0,0-1.92,1,4.17,4.17,0,0,0-.82,1.21A4.17,4.17,0,0,1,86.66,67.45ZM71.59,81.76l14,21.19h0Zm15.07,51.62a4.17,4.17,0,0,1-.82-1.21,4.17,4.17,0,0,0,.82,1.21,3.93,3.93,0,0,0,1.92,1A3.93,3.93,0,0,1,86.66,133.38Z"/><path class="cls-4" d="M27.52,92l-.44-1.16A28.57,28.57,0,0,0,6.92,73.11c-.22,2.27-.34,4.57-.34,6.89a73.65,73.65,0,0,0,2,16.85,160.93,160.93,0,0,0,17.79-4.49Z"/><path class="cls-4" d="M29.19,100.83A11.36,11.36,0,0,0,29,98.15l-.31-1.22-1.2.39a149.14,149.14,0,0,1-17.58,4.5A73,73,0,0,0,19.77,122,28.38,28.38,0,0,0,29.19,100.83Z"/><path class="cls-4" d="M102.14,129.3a28.47,28.47,0,1,0,0-56.93,27.21,27.21,0,0,0-17.72,6.36l-.8.67.58.88c8.6,12.9,19.16,18.42,19.26,18.47a2.17,2.17,0,0,1,1.17,1.41,2.74,2.74,0,0,1-.2,2,2.71,2.71,0,0,1-2.29,1.41,4.12,4.12,0,0,1-1.19-.28A65.09,65.09,0,0,1,81,84.66l-.89-1.25-1,1.19a25.59,25.59,0,0,0-5.43,16.23A28.5,28.5,0,0,0,102.14,129.3Z"/><path class="cls-4" d="M32.08,89.08l.43,1.12,1.11-.45a78,78,0,0,0,15.73-8.61l.49-.35V79l-.58-.34-31-18.07a15.75,15.75,0,0,1-6.57-7.46,73.55,73.55,0,0,0-4.14,15A33,33,0,0,1,20,73.46,33.85,33.85,0,0,1,32.08,89.08Z"/><path class="cls-4" d="M80,6.58A73.08,73.08,0,0,0,38.21,19.65L51.06,36.27l.26.35.43.08,19.74,4.06a2.45,2.45,0,0,1,2,2.6l-.19.19v.86a2.41,2.41,0,0,0,0,.4,18.75,18.75,0,0,1,.15,4.13v.14a60.63,60.63,0,0,0,6.58,24.45l.64,1.25,1.12-.86A32.49,32.49,0,0,1,102,67.16a34,34,0,0,1,23.8,10,33.48,33.48,0,1,1-49.08,2l.52-.62-.39-.71a72,72,0,0,1-5.07-12L70.79,63l-1.25,2.69a44.14,44.14,0,0,1-4.31,7.19c-.89,1.25-2,2.54-3.07,3.79l-.2.23-.06.3L54,115.52a2.58,2.58,0,0,1-2.54,2h-.3a2.62,2.62,0,0,1-2.21-2.5l.74-25.8.06-2.13L47.88,88.2a99.71,99.71,0,0,1-13.3,6.57l-.83.33.1.88a43.15,43.15,0,0,1,.36,4.85,33.31,33.31,0,0,1-9.79,23.7c-.52.52-1.06,1-1.61,1.49A73.41,73.41,0,1,0,80,6.58Z"/><path class="cls-4" d="M62.47,68,63.13,67a37.21,37.21,0,0,0,5.7-17.53V45.79l-1.2,0-19.35.37a3.18,3.18,0,0,1-1.83-.66L32.31,32.66,30.43,31l-.09,2.54L30,44.55l0,.64.52.36,31,21.76Z"/><path class="cls-2" d="M34.21,100.83A43.15,43.15,0,0,0,33.85,96l-.1-.88.83-.33a99.71,99.71,0,0,0,13.3-6.57l1.84-1.08-.06,2.13-.74,25.8a2.62,2.62,0,0,0,2.21,2.5h.3a2.58,2.58,0,0,0,2.54-2L61.9,77.18l.06-.3.2-.23c1.07-1.25,2.18-2.54,3.07-3.79a44.14,44.14,0,0,0,4.31-7.19L70.79,63l.94,2.81a72,72,0,0,0,5.07,12l.39.71-.52.62a33.51,33.51,0,1,0,49.08-2,34,34,0,0,0-23.8-10,32.49,32.49,0,0,0-20.11,6.76l-1.12.86-.64-1.25A60.63,60.63,0,0,1,73.5,49.08v-.14a18.75,18.75,0,0,0-.15-4.13,2.41,2.41,0,0,1,0-.4v-.86l.19-.19a2.45,2.45,0,0,0-2-2.6L51.75,36.7l-.43-.08-.26-.35L38.21,19.65A73.65,73.65,0,0,0,11.7,53.08a15.75,15.75,0,0,0,6.57,7.46l31,18.07.58.34v1.84l-.49.35a78,78,0,0,1-15.73,8.61l-1.11.45-.43-1.12A33.85,33.85,0,0,0,20,73.46a33,33,0,0,0-12.44-5.4c-.27,1.67-.49,3.35-.64,5A28.57,28.57,0,0,1,27.08,90.83L27.52,92l-1.18.37A160.93,160.93,0,0,1,8.55,96.85c.39,1.68.82,3.34,1.33,5a149.14,149.14,0,0,0,17.58-4.5l1.2-.39L29,98.15a11.36,11.36,0,0,1,.22,2.68A28.38,28.38,0,0,1,19.77,122c1,1.39,2,2.75,3,4.06.55-.48,1.09-1,1.61-1.49A33.31,33.31,0,0,0,34.21,100.83ZM80.08,83.41,81,84.66a65.09,65.09,0,0,0,20,18.59,4.12,4.12,0,0,0,1.19.28,2.71,2.71,0,0,0,2.29-1.41,2.74,2.74,0,0,0,.2-2,2.17,2.17,0,0,0-1.17-1.41c-.1,0-10.66-5.57-19.26-18.47l-.58-.88.8-.67a27.21,27.21,0,0,1,17.72-6.36,28.47,28.47,0,1,1-28.46,28.46A25.59,25.59,0,0,1,79.11,84.6ZM30.47,45.55,30,45.19l0-.64.37-11.06L30.43,31l1.88,1.71L46.46,45.52a3.18,3.18,0,0,0,1.83.66l19.35-.37,1.2,0v3.65A37.21,37.21,0,0,1,63.13,67L62.47,68l-1-.72Z"/><path class="cls-5" d="M103.23,66.33H88.65a3.83,3.83,0,0,0-3.81,3.81v5.38l-14,6.24,14,21.19v27.74a3.82,3.82,0,0,0,3.81,3.8h14.58a3.81,3.81,0,0,0,3.81-3.8V70.14A3.82,3.82,0,0,0,103.23,66.33ZM95.94,83.56a5.29,5.29,0,1,1,5.29-5.29A5.29,5.29,0,0,1,95.94,83.56Z"/></g></svg>